<?xml version="1.0" standalone="no"?>
<!DOCTYPE svg PUBLIC "-//W3C//DTD SVG 20010904//EN"
 "http://www.w3.org/TR/2001/REC-SVG-20010904/DTD/svg10.dtd">
<svg version="1.0" xmlns="http://www.w3.org/2000/svg"
 width="1000.000000pt" height="1000.000000pt" viewBox="0 0 1000.000000 1000.000000"
 preserveAspectRatio="xMidYMid meet">
<metadata>
Created by potrace 1.11, written by Peter Selinger 2001-2013
</metadata>
<g transform="translate(0.000000,1000.000000) scale(0.100000,-0.100000)"
fill="#000000" stroke="none">
<path d="M4739 9936 c-2 -2 -49 -6 -104 -10 -55 -4 -120 -9 -145 -11 -94 -11
-204 -25 -240 -31 -14 -2 -43 -7 -65 -10 -153 -22 -492 -104 -695 -169 -604
-194 -1179 -512 -1672 -926 -357 -301 -667 -648 -933 -1045 -50 -74 -100 -137
-123 -153 -103 -75 -166 -190 -177 -325 -2 -26 -24 -87 -53 -148 -52 -107
-120 -265 -128 -293 -1 -5 -14 -39 -28 -74 -82 -204 -196 -613 -231 -823 -3
-18 -10 -55 -15 -83 -10 -53 -13 -73 -29 -200 -17 -127 -20 -164 -28 -270 -10
-131 -10 -590 0 -730 8 -114 9 -124 28 -265 6 -47 13 -101 15 -120 4 -30 27
-160 40 -225 2 -11 7 -33 10 -50 33 -181 155 -587 234 -780 5 -11 14 -35 22
-54 7 -19 41 -96 74 -172 l61 -139 -180 -2 -181 -3 0 -145 c1 -164 15 -214 76
-271 70 -66 99 -72 343 -73 l219 -1 38 -55 c21 -30 41 -59 46 -65 4 -5 23 -32
42 -60 50 -71 200 -265 284 -365 67 -81 392 -411 486 -495 87 -77 331 -270
410 -324 19 -13 62 -42 95 -65 539 -373 1216 -648 1905 -772 14 -2 36 -7 50
-9 14 -3 45 -7 70 -10 25 -3 56 -7 69 -10 13 -2 46 -7 75 -10 28 -3 67 -7 86
-10 120 -14 269 -20 520 -20 259 0 322 3 500 20 59 6 252 32 285 39 11 2 42 7
69 10 27 4 52 9 55 11 3 1 24 6 46 9 128 20 451 108 650 176 293 101 677 279
896 415 9 5 32 19 50 29 64 36 299 195 401 272 384 290 765 675 1023 1034 22
30 44 60 50 66 5 6 37 52 70 101 l59 89 281 -1 c154 -1 292 3 308 8 15 5 33
19 39 31 9 16 13 204 14 751 l1 730 36 175 c20 96 39 202 43 235 3 33 8 63 10
66 1 3 6 37 10 75 3 38 8 76 9 85 27 141 27 793 0 1019 -3 19 -9 76 -15 125
-9 76 -28 191 -55 340 -12 65 -58 255 -86 355 -176 623 -489 1241 -873 1720
-154 192 -214 259 -405 450 -182 182 -367 340 -591 508 -212 159 -598 381
-870 501 -41 19 -88 40 -105 47 -105 46 -342 130 -545 192 -68 21 -253 67
-330 82 -25 5 -56 12 -70 15 -65 14 -232 42 -299 50 -30 4 -61 8 -70 10 -9 1
-52 6 -96 10 -44 4 -96 9 -115 12 -45 5 -646 14 -651 9z"/>
</g>
</svg>
